<svg id="SvgjsSvg1006" width="843.5" height="748" xmlns="http://www.w3.org/2000/svg" version="1.1" xmlns:xlink="http://www.w3.org/1999/xlink" xmlns:svgjs="http://svgjs.com/svgjs"><defs id="SvgjsDefs1007"><marker id="SvgjsMarker1062" markerWidth="16" markerHeight="12" refX="16" refY="6" viewBox="0 0 16 12" orient="auto" markerUnits="userSpaceOnUse" stroke-dasharray="0,0"><path id="SvgjsPath1063" d="M0,2 L14,6 L0,11 L0,2" fill="#323232" stroke="#323232" stroke-width="2"></path></marker><marker id="SvgjsMarker1103" markerWidth="16" markerHeight="12" refX="16" refY="6" viewBox="0 0 16 12" orient="auto" markerUnits="userSpaceOnUse" stroke-dasharray="0,0"><path id="SvgjsPath1104" d="M0,2 L14,6 L0,11 L0,2" fill="#323232" stroke="#323232" stroke-width="2"></path></marker><marker id="SvgjsMarker1173" markerWidth="16" markerHeight="12" refX="0" refY="6" viewBox="0 0 16 12" orient="auto" markerUnits="userSpaceOnUse" stroke-dasharray="0,0"><path id="SvgjsPath1174" d="M15,1.5 L2,6 L15,10.5" fill="#323232" stroke="#323232" stroke-width="2"></path></marker><marker id="SvgjsMarker1175" markerWidth="16" markerHeight="12" refX="16" refY="6" viewBox="0 0 16 12" orient="auto" markerUnits="userSpaceOnUse" stroke-dasharray="0,0"><path id="SvgjsPath1176" d="M0,2 L14,6 L0,11 L0,2" fill="#323232" stroke="#323232" stroke-width="2"></path></marker><marker id="SvgjsMarker1235" markerWidth="16" markerHeight="12" refX="0" refY="6" viewBox="0 0 16 12" orient="auto" markerUnits="userSpaceOnUse" stroke-dasharray="0,0"><path id="SvgjsPath1236" d="M15,1.5 L2,6 L15,10.5" fill="#323232" stroke="#323232" stroke-width="2"></path></marker><marker id="SvgjsMarker1237" markerWidth="16" markerHeight="12" refX="16" refY="6" viewBox="0 0 16 12" orient="auto" markerUnits="userSpaceOnUse" stroke-dasharray="0,0"><path id="SvgjsPath1238" d="M0,2 L14,6 L0,11 L0,2" fill="#323232" stroke="#323232" stroke-width="2"></path></marker><marker id="SvgjsMarker1241" markerWidth="16" markerHeight="12" refX="0" refY="6" viewBox="0 0 16 12" orient="auto" markerUnits="userSpaceOnUse" stroke-dasharray="0,0"><path id="SvgjsPath1242" d="M15,1.5 L2,6 L15,10.5" fill="#323232" stroke="#323232" stroke-width="2"></path></marker><marker id="SvgjsMarker1243" markerWidth="16" markerHeight="12" refX="16" refY="6" viewBox="0 0 16 12" orient="auto" markerUnits="userSpaceOnUse" stroke-dasharray="0,0"><path id="SvgjsPath1244" d="M0,2 L14,6 L0,11 L0,2" fill="#323232" stroke="#323232" stroke-width="2"></path></marker><marker id="SvgjsMarker1247" markerWidth="16" markerHeight="12" refX="0" refY="6" viewBox="0 0 16 12" orient="auto" markerUnits="userSpaceOnUse" stroke-dasharray="0,0"><path id="SvgjsPath1248" d="M15,1.5 L2,6 L15,10.5" fill="#323232" stroke="#323232" stroke-width="2"></path></marker><marker id="SvgjsMarker1249" markerWidth="16" markerHeight="12" refX="16" refY="6" viewBox="0 0 16 12" orient="auto" markerUnits="userSpaceOnUse" stroke-dasharray="0,0"><path id="SvgjsPath1250" d="M0,2 L14,6 L0,11 L0,2" fill="#323232" stroke="#323232" stroke-width="2"></path></marker><marker id="SvgjsMarker1253" markerWidth="16" markerHeight="12" refX="0" refY="6" viewBox="0 0 16 12" orient="auto" markerUnits="userSpaceOnUse" stroke-dasharray="0,0"><path id="SvgjsPath1254" d="M15,1.5 L2,6 L15,10.5" fill="#323232" stroke="#323232" stroke-width="2"></path></marker><marker id="SvgjsMarker1255" markerWidth="16" markerHeight="12" refX="16" refY="6" viewBox="0 0 16 12" orient="auto" markerUnits="userSpaceOnUse" stroke-dasharray="0,0"><path id="SvgjsPath1256" d="M0,2 L14,6 L0,11 L0,2" fill="#323232" stroke="#323232" stroke-width="2"></path></marker><marker id="SvgjsMarker1259" markerWidth="16" markerHeight="12" refX="0" refY="6" viewBox="0 0 16 12" orient="auto" markerUnits="userSpaceOnUse" stroke-dasharray="0,0"><path id="SvgjsPath1260" d="M15,1.5 L2,6 L15,10.5" fill="#323232" stroke="#323232" stroke-width="2"></path></marker><marker id="SvgjsMarker1261" markerWidth="16" markerHeight="12" refX="16" refY="6" viewBox="0 0 16 12" orient="auto" markerUnits="userSpaceOnUse" stroke-dasharray="0,0"><path id="SvgjsPath1262" d="M0,2 L14,6 L0,11 L0,2" fill="#323232" stroke="#323232" stroke-width="2"></path></marker><marker id="SvgjsMarker1283" markerWidth="16" markerHeight="12" refX="0" refY="6" viewBox="0 0 16 12" orient="auto" markerUnits="userSpaceOnUse" stroke-dasharray="0,0"><path id="SvgjsPath1284" d="M15,1.5 L2,6 L15,10.5" fill="#323232" stroke="#323232" stroke-width="2"></path></marker><marker id="SvgjsMarker1287" markerWidth="16" markerHeight="12" refX="0" refY="6" viewBox="0 0 16 12" orient="auto" markerUnits="userSpaceOnUse" stroke-dasharray="0,0"><path id="SvgjsPath1288" d="M15,1.5 L2,6 L15,10.5" fill="#323232" stroke="#323232" stroke-width="2"></path></marker><marker id="SvgjsMarker1291" markerWidth="16" markerHeight="12" refX="0" refY="6" viewBox="0 0 16 12" orient="auto" markerUnits="userSpaceOnUse" stroke-dasharray="0,0"><path id="SvgjsPath1292" d="M15,1.5 L2,6 L15,10.5" fill="#323232" stroke="#323232" stroke-width="2"></path></marker><marker id="SvgjsMarker1293" markerWidth="16" markerHeight="12" refX="16" refY="6" viewBox="0 0 16 12" orient="auto" markerUnits="userSpaceOnUse" stroke-dasharray="0,0"><path id="SvgjsPath1294" d="M0,2 L14,6 L0,11 L0,2" fill="#323232" stroke="#323232" stroke-width="2"></path></marker><marker id="SvgjsMarker1297" markerWidth="16" markerHeight="12" refX="0" refY="6" viewBox="0 0 16 12" orient="auto" markerUnits="userSpaceOnUse" stroke-dasharray="0,0"><path id="SvgjsPath1298" d="M15,1.5 L2,6 L15,10.5" fill="#323232" stroke="#323232" stroke-width="2"></path></marker><marker id="SvgjsMarker1299" markerWidth="16" markerHeight="12" refX="16" refY="6" viewBox="0 0 16 12" orient="auto" markerUnits="userSpaceOnUse" stroke-dasharray="0,0"><path id="SvgjsPath1300" d="M0,2 L14,6 L0,11 L0,2" fill="#323232" stroke="#323232" stroke-width="2"></path></marker><marker id="SvgjsMarker1303" markerWidth="16" markerHeight="12" refX="0" refY="6" viewBox="0 0 16 12" orient="auto" markerUnits="userSpaceOnUse" stroke-dasharray="0,0"><path id="SvgjsPath1304" d="M15,1.5 L2,6 L15,10.5" fill="#323232" stroke="#323232" stroke-width="2"></path></marker><marker id="SvgjsMarker1305" markerWidth="16" markerHeight="12" refX="16" refY="6" viewBox="0 0 16 12" orient="auto" markerUnits="userSpaceOnUse" stroke-dasharray="0,0"><path id="SvgjsPath1306" d="M0,2 L14,6 L0,11 L0,2" fill="#323232" stroke="#323232" stroke-width="2"></path></marker></defs><g id="SvgjsG1008" transform="translate(576.5,58)"><path id="SvgjsPath1009" d="M 0 0L 242 0L 242 42L 0 42Z" stroke="rgba(50,50,50,1)" stroke-width="2" fill-opacity="1" fill="#c05045"></path><g id="SvgjsG1010"><text id="SvgjsText1011" font-family="微软雅黑" text-anchor="middle" font-size="13px" width="222px" fill="#323232" font-weight="400" align="middle" anchor="middle" family="微软雅黑" size="13px" weight="400" font-style="" opacity="1" y="11.05" transform="rotate(0)"><tspan id="SvgjsTspan1012" dy="16" x="121"><tspan id="SvgjsTspan1013" style="text-decoration:;">内核空间</tspan></tspan></text></g></g><g id="SvgjsG1014" transform="translate(310.5,246)"><path id="SvgjsPath1015" d="M 0 0L 242 0L 242 29L 0 29Z" stroke="rgba(50,50,50,1)" stroke-width="2" fill-opacity="1" fill="#ffffff"></path><g id="SvgjsG1016"><text id="SvgjsText1017" font-family="微软雅黑" text-anchor="middle" font-size="13px" width="222px" fill="#323232" font-weight="400" align="middle" anchor="middle" family="微软雅黑" size="13px" weight="400" font-style="" opacity="1" y="4.55" transform="rotate(0)"><tspan id="SvgjsTspan1018" dy="16" x="121"><tspan id="SvgjsTspan1019" style="text-decoration:;">bss:未初始化的全局或静态变量</tspan></tspan></text></g></g><g id="SvgjsG1020" transform="translate(310.5,275)"><path id="SvgjsPath1021" d="M 0 0L 242 0L 242 28L 0 28Z" stroke="rgba(50,50,50,1)" stroke-width="2" fill-opacity="1" fill="#ffffff"></path><g id="SvgjsG1022"><text id="SvgjsText1023" font-family="微软雅黑" text-anchor="middle" font-size="13px" width="222px" fill="#323232" font-weight="400" align="middle" anchor="middle" family="微软雅黑" size="13px" weight="400" font-style="" opacity="1" y="4.05" transform="rotate(0)"><tspan id="SvgjsTspan1024" dy="16" x="121"><tspan id="SvgjsTspan1025" style="text-decoration:;">data:已初始化的全局或静态变量</tspan></tspan></text></g></g><g id="SvgjsG1026" transform="translate(310.5,303)"><path id="SvgjsPath1027" d="M 0 0L 242 0L 242 26L 0 26Z" stroke="rgba(50,50,50,1)" stroke-width="2" fill-opacity="1" fill="#ffffff"></path><g id="SvgjsG1028"><text id="SvgjsText1029" font-family="微软雅黑" text-anchor="middle" font-size="13px" width="222px" fill="#323232" font-weight="400" align="middle" anchor="middle" family="微软雅黑" size="13px" weight="400" font-style="" opacity="1" y="3.05" transform="rotate(0)"><tspan id="SvgjsTspan1030" dy="16" x="121"><tspan id="SvgjsTspan1031" style="text-decoration:;">text:只读，程序机器码,常量</tspan></tspan></text></g></g><g id="SvgjsG1032" transform="translate(576.5,100)"><path id="SvgjsPath1033" d="M 0 0L 242 0L 242 23L 0 23Z" stroke="rgba(50,50,50,1)" stroke-width="2" fill-opacity="1" fill="#ffffff"></path><g id="SvgjsG1034"><text id="SvgjsText1035" font-family="微软雅黑" text-anchor="middle" font-size="13px" width="222px" fill="#323232" font-weight="400" align="middle" anchor="middle" family="微软雅黑" size="13px" weight="400" font-style="" opacity="1" y="1.55" transform="rotate(0)"></text></g></g><g id="SvgjsG1036" transform="translate(310.5,34)"><path id="SvgjsPath1037" d="M 0 0L 242 0L 242 24L 0 24Z" stroke="rgba(50,50,50,1)" stroke-width="2" fill-opacity="1" fill="#ffffff"></path><g id="SvgjsG1038"><text id="SvgjsText1039" font-family="微软雅黑" text-anchor="middle" font-size="13px" width="222px" fill="#323232" font-weight="400" align="middle" anchor="middle" family="微软雅黑" size="13px" weight="400" font-style="" opacity="1" y="2.05" transform="rotate(0)"><tspan id="SvgjsTspan1040" dy="16" x="121"><tspan id="SvgjsTspan1041" style="text-decoration:;">stack:局部变量和函数调用的上下文</tspan></tspan></text></g></g><g id="SvgjsG1042" transform="translate(310.5,119)"><path id="SvgjsPath1043" d="M 0 0L 242 0L 242 42L 0 42Z" stroke="rgba(50,50,50,1)" stroke-width="2" fill-opacity="1" fill="#ffffff"></path><g id="SvgjsG1044"><text id="SvgjsText1045" font-family="微软雅黑" text-anchor="middle" font-size="13px" width="222px" fill="#323232" font-weight="400" align="middle" anchor="middle" family="微软雅黑" size="13px" weight="400" font-style="" opacity="1" y="11.05" transform="rotate(0)"><tspan id="SvgjsTspan1046" dy="16" x="121"><tspan id="SvgjsTspan1047" style="text-decoration:;">mmap():posix system call</tspan></tspan></text></g></g><g id="SvgjsG1048" transform="translate(310.5,217)"><path id="SvgjsPath1049" d="M 0 0L 242 0L 242 29L 0 29Z" stroke="rgba(50,50,50,1)" stroke-width="2" fill-opacity="1" fill="#ffffff"></path><g id="SvgjsG1050"><text id="SvgjsText1051" font-family="微软雅黑" text-anchor="middle" font-size="13px" width="222px" fill="#323232" font-weight="400" align="middle" anchor="middle" family="微软雅黑" size="13px" weight="400" font-style="" opacity="1" y="4.55" transform="rotate(0)"><tspan id="SvgjsTspan1052" dy="16" x="121"><tspan id="SvgjsTspan1053" style="text-decoration:;">heap:动态分配的变量，线程共享</tspan></tspan></text></g></g><g id="SvgjsG1054" transform="translate(313.5,332)"><path id="SvgjsPath1055" d="M 0 0L 225 0L 225 22L 0 22Z" stroke="none" fill="none"></path><g id="SvgjsG1056"><text id="SvgjsText1057" font-family="微软雅黑" text-anchor="middle" font-size="13px" width="225px" fill="#323232" font-weight="400" align="middle" anchor="middle" family="微软雅黑" size="13px" weight="400" font-style="" opacity="1" y="1.05" transform="rotate(0)"><tspan id="SvgjsTspan1058" dy="16" x="112.5"><tspan id="SvgjsTspan1059" style="text-decoration:;">进程中用户态的segment，下方低地址</tspan></tspan></text></g></g><g id="SvgjsG1060"><path id="SvgjsPath1061" d="M431.5 217L431.5 197L431.5 197L431.5 177" stroke="#323232" stroke-width="2" fill="none" marker-end="url(#SvgjsMarker1062)"></path><rect id="SvgjsRect1064" width="26" height="16" x="418.5" y="189" fill="#ffffff"></rect><text id="SvgjsText1065" font-family="微软雅黑" text-anchor="middle" font-size="13px" width="26px" fill="#323232" font-weight="400" align="top" anchor="middle" family="微软雅黑" size="13px" weight="400" font-style="" opacity="1" y="187.05" transform="rotate(0)"><tspan id="SvgjsTspan1066" dy="16" x="431.5"><tspan id="SvgjsTspan1067" style="text-decoration:;">扩展</tspan></tspan></text></g><g id="SvgjsG1068" transform="translate(187.5,252)"><path id="SvgjsPath1069" d="M 123 0Q 114 0 114 7.7L 114 30.8Q 114 38.5 101 38.5Q 114 38.5 114 46.2L 114 69.3Q 114 77 123 77" stroke="rgba(50,50,50,1)" stroke-width="2" fill="none"></path><path id="SvgjsPath1070" d="M 0 0L 123 0L 123 77L 0 77Z" stroke="none" fill="none"></path><g id="SvgjsG1071"><text id="SvgjsText1072" font-family="微软雅黑" text-anchor="end" font-size="13px" width="96px" fill="#323232" font-weight="400" align="middle" anchor="end" family="微软雅黑" size="13px" weight="400" font-style="" opacity="1" y="20.55" transform="rotate(0)"><tspan id="SvgjsTspan1073" dy="16" x="96"><tspan id="SvgjsTspan1074" style="text-decoration:;">程序直接加载；</tspan></tspan><tspan id="SvgjsTspan1075" dy="16" x="96"><tspan id="SvgjsTspan1076" style="text-decoration:;">用size命令查询</tspan></tspan></text></g></g><g id="SvgjsG1077" transform="translate(55.5,300)"><path id="SvgjsPath1078" d="M 0 0L 107 0L 107 62L 0 62Z" stroke="rgba(50,50,50,1)" stroke-width="2" fill-opacity="1" fill="#9cbb65"></path><g id="SvgjsG1079"><text id="SvgjsText1080" font-family="微软雅黑" text-anchor="middle" font-size="13px" width="87px" fill="#323232" font-weight="400" align="middle" anchor="middle" family="微软雅黑" size="13px" weight="400" font-style="" opacity="1" y="21.05" transform="rotate(0)"><tspan id="SvgjsTspan1081" dy="16" x="53.5"><tspan id="SvgjsTspan1082" style="text-decoration:;">0~896M</tspan></tspan></text></g></g><g id="SvgjsG1083" transform="translate(55.5,25)"><path id="SvgjsPath1084" d="M 0 0L 107 0L 107 251L 0 251Z" stroke="rgba(50,50,50,1)" stroke-width="2" fill-opacity="1" fill="#c05045"></path><g id="SvgjsG1085"><text id="SvgjsText1086" font-family="微软雅黑" text-anchor="middle" font-size="13px" width="87px" fill="#323232" font-weight="400" align="middle" anchor="middle" family="微软雅黑" size="13px" weight="400" font-style="" opacity="1" y="115.55" transform="rotate(0)"><tspan id="SvgjsTspan1087" dy="16" x="53.5"><tspan id="SvgjsTspan1088" style="text-decoration:;">1G～4G</tspan></tspan></text></g></g><g id="SvgjsG1089" transform="translate(55.5,268)"><path id="SvgjsPath1090" d="M 0 0L 107 0L 107 37L 0 37Z" stroke="rgba(50,50,50,1)" stroke-width="2" fill-opacity="1" fill="#c05045"></path><g id="SvgjsG1091"><text id="SvgjsText1092" font-family="微软雅黑" text-anchor="middle" font-size="13px" width="87px" fill="#323232" font-weight="400" align="middle" anchor="middle" family="微软雅黑" size="13px" weight="400" font-style="" opacity="1" y="8.55" transform="rotate(0)"><tspan id="SvgjsTspan1093" dy="16" x="53.5"><tspan id="SvgjsTspan1094" style="text-decoration:;">896M～1G</tspan></tspan></text></g></g><g id="SvgjsG1095" transform="translate(25,362)"><path id="SvgjsPath1096" d="M 0 0L 160 0L 160 40L 0 40Z" stroke="none" fill="none"></path><g id="SvgjsG1097"><text id="SvgjsText1098" font-family="微软雅黑" text-anchor="middle" font-size="13px" width="160px" fill="#323232" font-weight="400" align="middle" anchor="middle" family="微软雅黑" size="13px" weight="400" font-style="" opacity="1" y="10.05" transform="rotate(0)"><tspan id="SvgjsTspan1099" dy="16" x="80"><tspan id="SvgjsTspan1100" style="text-decoration:;">eg. 物理内存4GB</tspan></tspan></text></g></g><g id="SvgjsG1101"><path id="SvgjsPath1102" d="M431.5 58L431.5 79.5L431.5 79.5L431.5 101" stroke="#323232" stroke-width="2" fill="none" marker-end="url(#SvgjsMarker1103)"></path><rect id="SvgjsRect1105" width="26" height="16" x="418.5" y="71.5" fill="#ffffff"></rect><text id="SvgjsText1106" font-family="微软雅黑" text-anchor="middle" font-size="13px" width="26px" fill="#323232" font-weight="400" align="top" anchor="middle" family="微软雅黑" size="13px" weight="400" font-style="" opacity="1" y="69.55" transform="rotate(0)"><tspan id="SvgjsTspan1107" dy="16" x="431.5"><tspan id="SvgjsTspan1108" style="text-decoration:;">扩展</tspan></tspan></text></g><g id="SvgjsG1109" transform="translate(182.5,80.5)"><path id="SvgjsPath1110" d="M 0 0L 128 0L 128 125L 0 125Z" stroke="none" fill="none"></path><g id="SvgjsG1111"><text id="SvgjsText1112" font-family="微软雅黑" text-anchor="middle" font-size="13px" width="128px" fill="#323232" font-weight="400" align="middle" anchor="middle" family="微软雅黑" size="13px" weight="400" font-style="" opacity="1" y="20.55" transform="rotate(0)"><tspan id="SvgjsTspan1113" dy="16" x="64"><tspan id="SvgjsTspan1114" style="text-decoration:;">此函数用于文件映射</tspan></tspan><tspan id="SvgjsTspan1115" dy="16" x="64"><tspan id="SvgjsTspan1116" style="text-decoration:;">(读取文本; 加载动态</tspan></tspan><tspan id="SvgjsTspan1117" dy="16" x="64"><tspan id="SvgjsTspan1118" style="text-decoration:;">链接库lib.so)，或非文</tspan></tspan><tspan id="SvgjsTspan1119" dy="16" x="64"><tspan id="SvgjsTspan1120" style="text-decoration:;">件映射(匿名映射：用</tspan></tspan><tspan id="SvgjsTspan1121" dy="16" x="64"><tspan id="SvgjsTspan1122" style="text-decoration:;">于进程间通信)</tspan></tspan></text></g></g><g id="SvgjsG1123" transform="translate(576.5,123)"><path id="SvgjsPath1124" d="M 0 0L 242 0L 242 25L 0 25Z" stroke="rgba(50,50,50,1)" stroke-width="2" fill-opacity="1" fill="#9cbb65"></path><g id="SvgjsG1125"><text id="SvgjsText1126" font-family="微软雅黑" text-anchor="middle" font-size="13px" width="222px" fill="#323232" font-weight="400" align="middle" anchor="middle" family="微软雅黑" size="13px" weight="400" font-style="" opacity="1" y="2.55" transform="rotate(0)"><tspan id="SvgjsTspan1127" dy="16" x="121"><tspan id="SvgjsTspan1128" style="text-decoration:;">进程1用户空间</tspan></tspan></text></g></g><g id="SvgjsG1129" transform="translate(576.5,215)"><path id="SvgjsPath1130" d="M 0 0L 242 0L 242 23L 0 23Z" stroke="rgba(50,50,50,1)" stroke-width="2" fill-opacity="1" fill="#ffffff"></path><g id="SvgjsG1131"><text id="SvgjsText1132" font-family="微软雅黑" text-anchor="middle" font-size="13px" width="222px" fill="#323232" font-weight="400" align="middle" anchor="middle" family="微软雅黑" size="13px" weight="400" font-style="" opacity="1" y="1.55" transform="rotate(0)"></text></g></g><g id="SvgjsG1133" transform="translate(576.5,148)"><path id="SvgjsPath1134" d="M 0 0L 242 0L 242 42L 0 42Z" stroke="rgba(50,50,50,1)" stroke-width="2" fill-opacity="1" fill="#ffffff"></path><g id="SvgjsG1135"><text id="SvgjsText1136" font-family="微软雅黑" text-anchor="middle" font-size="13px" width="222px" fill="#323232" font-weight="400" align="middle" anchor="middle" family="微软雅黑" size="13px" weight="400" font-style="" opacity="1" y="11.05" transform="rotate(0)"></text></g></g><g id="SvgjsG1137" transform="translate(576.5,190)"><path id="SvgjsPath1138" d="M 0 0L 242 0L 242 25L 0 25Z" stroke="rgba(50,50,50,1)" stroke-width="2" fill-opacity="1" fill="#31bae6"></path><g id="SvgjsG1139"><text id="SvgjsText1140" font-family="微软雅黑" text-anchor="middle" font-size="13px" width="222px" fill="#323232" font-weight="400" align="middle" anchor="middle" family="微软雅黑" size="13px" weight="400" font-style="" opacity="1" y="2.55" transform="rotate(0)"><tspan id="SvgjsTspan1141" dy="16" x="121"><tspan id="SvgjsTspan1142" style="text-decoration:;">进程2用户空间</tspan></tspan></text></g></g><g id="SvgjsG1143" transform="translate(576.5,238)"><path id="SvgjsPath1144" d="M 0 0L 242 0L 242 25L 0 25Z" stroke="rgba(50,50,50,1)" stroke-width="2" fill-opacity="1" fill="#f0e152"></path><g id="SvgjsG1145"><text id="SvgjsText1146" font-family="微软雅黑" text-anchor="middle" font-size="13px" width="222px" fill="#323232" font-weight="400" align="middle" anchor="middle" family="微软雅黑" size="13px" weight="400" font-style="" opacity="1" y="2.55" transform="rotate(0)"><tspan id="SvgjsTspan1147" dy="16" x="121"><tspan id="SvgjsTspan1148" style="text-decoration:;">进程3用户空间</tspan></tspan></text></g></g><g id="SvgjsG1149" transform="translate(576.5,263)"><path id="SvgjsPath1150" d="M 0 0L 242 0L 242 23L 0 23Z" stroke="rgba(50,50,50,1)" stroke-width="2" fill-opacity="1" fill="#ffffff"></path><g id="SvgjsG1151"><text id="SvgjsText1152" font-family="微软雅黑" text-anchor="middle" font-size="13px" width="222px" fill="#323232" font-weight="400" align="middle" anchor="middle" family="微软雅黑" size="13px" weight="400" font-style="" opacity="1" y="1.55" transform="rotate(0)"></text></g></g><g id="SvgjsG1153" transform="translate(621.5,283)"><path id="SvgjsPath1154" d="M 0 0L 160 0L 160 40L 0 40Z" stroke="none" fill="none"></path><g id="SvgjsG1155"><text id="SvgjsText1156" font-family="微软雅黑" text-anchor="middle" font-size="13px" width="160px" fill="#323232" font-weight="400" align="middle" anchor="middle" family="微软雅黑" size="13px" weight="400" font-style="" opacity="1" y="10.05" transform="rotate(0)"><tspan id="SvgjsTspan1157" dy="16" x="80"><tspan id="SvgjsTspan1158" style="text-decoration:;">物理内存空间</tspan></tspan></text></g></g><g id="SvgjsG1159" transform="translate(146.5,409)"><path id="SvgjsPath1160" d="M 0 0L 425 0L 425 20L 0 20Z" stroke="rgba(50,50,50,1)" stroke-width="2" fill-opacity="1" fill="#ffffff"></path><g id="SvgjsG1161"><text id="SvgjsText1162" font-family="微软雅黑" text-anchor="middle" font-size="13px" width="405px" fill="#323232" font-weight="400" align="middle" anchor="middle" family="微软雅黑" size="13px" weight="400" font-style="" opacity="1" y="0.050000000000000044" transform="rotate(0)"><tspan id="SvgjsTspan1163" dy="16" x="212.5"><tspan id="SvgjsTspan1164" style="text-decoration:;">用户进程</tspan></tspan></text></g></g><g id="SvgjsG1165" transform="translate(146.5,461)"><path id="SvgjsPath1166" d="M 0 0L 425 0L 425 21L 0 21Z" stroke="rgba(50,50,50,1)" stroke-width="2" fill-opacity="1" fill="#ffffff"></path><g id="SvgjsG1167"><text id="SvgjsText1168" font-family="微软雅黑" text-anchor="middle" font-size="13px" width="405px" fill="#323232" font-weight="400" align="middle" anchor="middle" family="微软雅黑" size="13px" weight="400" font-style="" opacity="1" y="0.55" transform="rotate(0)"><tspan id="SvgjsTspan1169" dy="16" x="212.5"><tspan id="SvgjsTspan1170" style="text-decoration:;">vfs：虚拟文件系统</tspan></tspan></text></g></g><g id="SvgjsG1171"><path id="SvgjsPath1172" d="M359 461L359 445L359 445L359 429" stroke="#323232" stroke-width="2" fill="none" marker-start="url(#SvgjsMarker1173)" marker-end="url(#SvgjsMarker1175)"></path><rect id="SvgjsRect1177" width="72" height="16" x="323" y="437" fill="#ffffff"></rect><text id="SvgjsText1178" font-family="微软雅黑" text-anchor="middle" font-size="13px" width="72px" fill="#323232" font-weight="400" align="top" anchor="middle" family="微软雅黑" size="13px" weight="400" font-style="" opacity="1" y="435.05" transform="rotate(0)"><tspan id="SvgjsTspan1179" dy="16" x="359"><tspan id="SvgjsTspan1180" style="text-decoration:;"> (system calls)</tspan></tspan></text></g><g id="SvgjsG1181" transform="translate(39.5,461)"><path id="SvgjsPath1182" d="M 100 0Q 91 0 91 9L 91 61Q 91 70 78 70Q 91 70 91 79L 91 131Q 91 140 100 140" stroke="rgba(50,50,50,1)" stroke-width="2" fill="none"></path><path id="SvgjsPath1183" d="M 0 0L 100 0L 100 140L 0 140Z" stroke="none" fill="none"></path><g id="SvgjsG1184"><text id="SvgjsText1185" font-family="微软雅黑" text-anchor="end" font-size="13px" width="73px" fill="#323232" font-weight="400" align="middle" anchor="end" family="微软雅黑" size="13px" weight="400" font-style="" opacity="1" y="60.05" transform="rotate(0)"><tspan id="SvgjsTspan1186" dy="16" x="73"><tspan id="SvgjsTspan1187" style="text-decoration:;">内核空间</tspan></tspan></text></g></g><g id="SvgjsG1188" transform="translate(35.5,402)"><path id="SvgjsPath1189" d="M 108 0Q 99 0 99 3.4000000000000004L 99 13.6Q 99 17 86 17Q 99 17 99 20.4L 99 30.6Q 99 34 108 34" stroke="rgba(50,50,50,1)" stroke-width="2" fill="none"></path><path id="SvgjsPath1190" d="M 0 0L 108 0L 108 34L 0 34Z" stroke="none" fill="none"></path><g id="SvgjsG1191"><text id="SvgjsText1192" font-family="微软雅黑" text-anchor="end" font-size="13px" width="81px" fill="#323232" font-weight="400" align="middle" anchor="end" family="微软雅黑" size="13px" weight="400" font-style="" opacity="1" y="7.05" transform="rotate(0)"><tspan id="SvgjsTspan1193" dy="16" x="81"><tspan id="SvgjsTspan1194" style="text-decoration:;">用户空间</tspan></tspan></text></g></g><g id="SvgjsG1195" transform="translate(152.5,519)"><path id="SvgjsPath1196" d="M 0 0L 69 0L 69 28L 0 28Z" stroke="rgba(50,50,50,1)" stroke-width="2" fill-opacity="1" fill="#ffffff"></path><g id="SvgjsG1197"><text id="SvgjsText1198" font-family="微软雅黑" text-anchor="middle" font-size="13px" width="49px" fill="#323232" font-weight="400" align="middle" anchor="middle" family="微软雅黑" size="13px" weight="400" font-style="" opacity="1" y="4.05" transform="rotate(0)"><tspan id="SvgjsTspan1199" dy="16" x="34.5"><tspan id="SvgjsTspan1200" style="text-decoration:;">ext4</tspan></tspan></text></g></g><g id="SvgjsG1201" transform="translate(304.5,519)"><path id="SvgjsPath1202" d="M 0 0L 109 0L 109 38L 0 38Z" stroke="rgba(50,50,50,1)" stroke-width="2" fill-opacity="1" fill="#ffffff"></path><g id="SvgjsG1203"><text id="SvgjsText1204" font-family="微软雅黑" text-anchor="middle" font-size="13px" width="89px" fill="#323232" font-weight="400" align="middle" anchor="middle" family="微软雅黑" size="13px" weight="400" font-style="" opacity="1" y="1.05" transform="rotate(0)"><tspan id="SvgjsTspan1205" dy="16" x="54.5"><tspan id="SvgjsTspan1206" style="text-decoration:;">procfs</tspan></tspan><tspan id="SvgjsTspan1207" dy="16" x="54.5"><tspan id="SvgjsTspan1208" style="text-decoration:;">sysfs</tspan></tspan></text></g></g><g id="SvgjsG1209" transform="translate(420.5,519)"><path id="SvgjsPath1210" d="M 0 0L 118 0L 118 35L 0 35Z" stroke="rgba(50,50,50,1)" stroke-width="2" fill-opacity="1" fill="#ffffff"></path><g id="SvgjsG1211"><text id="SvgjsText1212" font-family="微软雅黑" text-anchor="middle" font-size="13px" width="98px" fill="#323232" font-weight="400" align="middle" anchor="middle" family="微软雅黑" size="13px" weight="400" font-style="" opacity="1" y="-0.44999999999999996" transform="rotate(0)"><tspan id="SvgjsTspan1213" dy="16" x="59"><tspan id="SvgjsTspan1214" style="text-decoration:;">tmpfs</tspan></tspan><tspan id="SvgjsTspan1215" dy="16" x="59"><tspan id="SvgjsTspan1216" style="text-decoration:;">devtmpfs</tspan></tspan></text></g></g><g id="SvgjsG1217" transform="translate(548.5,524)"><path id="SvgjsPath1218" d="M 0 0L 110 0L 110 25L 0 25Z" stroke="rgba(50,50,50,1)" stroke-width="2" fill-opacity="1" fill="#ffffff"></path><g id="SvgjsG1219"><text id="SvgjsText1220" font-family="微软雅黑" text-anchor="middle" font-size="13px" width="90px" fill="#323232" font-weight="400" align="middle" anchor="middle" family="微软雅黑" size="13px" weight="400" font-style="" opacity="1" y="2.55" transform="rotate(0)"><tspan id="SvgjsTspan1221" dy="16" x="55"><tspan id="SvgjsTspan1222" style="text-decoration:;">cgroups</tspan></tspan></text></g></g><g id="SvgjsG1223" transform="translate(227.5,519)"><path id="SvgjsPath1224" d="M 0 0L 71 0L 71 50L 0 50Z" stroke="rgba(50,50,50,1)" stroke-width="2" fill-opacity="1" fill="#ffffff"></path><g id="SvgjsG1225"><text id="SvgjsText1226" font-family="微软雅黑" text-anchor="middle" font-size="13px" width="51px" fill="#323232" font-weight="400" align="middle" anchor="middle" family="微软雅黑" size="13px" weight="400" font-style="" opacity="1" y="-0.95" transform="rotate(0)"><tspan id="SvgjsTspan1227" dy="16" x="35.5"><tspan id="SvgjsTspan1228" style="text-decoration:;">NFS</tspan></tspan><tspan id="SvgjsTspan1229" dy="16" x="35.5"><tspan id="SvgjsTspan1230" style="text-decoration:;">sockfs  </tspan></tspan><tspan id="SvgjsTspan1231" dy="16" x="35.5"><tspan id="SvgjsTspan1232" style="text-decoration:;">etc.</tspan></tspan></text></g></g><g id="SvgjsG1233"><path id="SvgjsPath1234" d="M187 519L187 500.5L359 500.5L359 482" stroke="#323232" stroke-width="2" fill="none" marker-start="url(#SvgjsMarker1235)" marker-end="url(#SvgjsMarker1237)"></path></g><g id="SvgjsG1239"><path id="SvgjsPath1240" d="M263 519L263 500.5L359 500.5L359 482" stroke="#323232" stroke-width="2" fill="none" marker-start="url(#SvgjsMarker1241)" marker-end="url(#SvgjsMarker1243)"></path></g><g id="SvgjsG1245"><path id="SvgjsPath1246" d="M359 519L359 500.5L359 500.5L359 482" stroke="#323232" stroke-width="2" fill="none" marker-start="url(#SvgjsMarker1247)" marker-end="url(#SvgjsMarker1249)"></path></g><g id="SvgjsG1251"><path id="SvgjsPath1252" d="M479.5 519L479.5 500.5L359 500.5L359 482" stroke="#323232" stroke-width="2" fill="none" marker-start="url(#SvgjsMarker1253)" marker-end="url(#SvgjsMarker1255)"></path></g><g id="SvgjsG1257"><path id="SvgjsPath1258" d="M603.5 524L603.5 503L359 503L359 482" stroke="#323232" stroke-width="2" fill="none" marker-start="url(#SvgjsMarker1259)" marker-end="url(#SvgjsMarker1261)"></path></g><g id="SvgjsG1263" transform="translate(149.75,579)"><path id="SvgjsPath1264" d="M 0 0L 74.5 0L 74.5 40L 0 40Z" stroke="rgba(50,50,50,1)" stroke-width="2" fill-opacity="1" fill="#ffffff"></path><g id="SvgjsG1265"><text id="SvgjsText1266" font-family="微软雅黑" text-anchor="middle" font-size="13px" width="55px" fill="#323232" font-weight="400" align="middle" anchor="middle" family="微软雅黑" size="13px" weight="400" font-style="" opacity="1" y="10.05" transform="rotate(0)"><tspan id="SvgjsTspan1267" dy="16" x="37.5"><tspan id="SvgjsTspan1268" style="text-decoration:;">SSD</tspan></tspan></text></g></g><g id="SvgjsG1269" transform="translate(249.5,579)"><path id="SvgjsPath1270" d="M 0 0L 93 0L 93 40L 0 40Z" stroke="rgba(50,50,50,1)" stroke-width="2" fill-opacity="1" fill="#ffffff"></path><g id="SvgjsG1271"><text id="SvgjsText1272" font-family="微软雅黑" text-anchor="middle" font-size="13px" width="73px" fill="#323232" font-weight="400" align="middle" anchor="middle" family="微软雅黑" size="13px" weight="400" font-style="" opacity="1" y="10.05" transform="rotate(0)"><tspan id="SvgjsTspan1273" dy="16" x="46.5"><tspan id="SvgjsTspan1274" style="text-decoration:;">网络</tspan></tspan></text></g></g><g id="SvgjsG1275" transform="translate(413.5,684)"><path id="SvgjsPath1276" d="M 0 0L 110 0L 110 39L 0 39Z" stroke="rgba(50,50,50,1)" stroke-width="2" fill-opacity="1" fill="#ffffff"></path><g id="SvgjsG1277"><text id="SvgjsText1278" font-family="微软雅黑" text-anchor="middle" font-size="13px" width="90px" fill="#323232" font-weight="400" align="middle" anchor="middle" family="微软雅黑" size="13px" weight="400" font-style="" opacity="1" y="9.55" transform="rotate(0)"><tspan id="SvgjsTspan1279" dy="16" x="55"><tspan id="SvgjsTspan1280" style="text-decoration:;">内存</tspan></tspan></text></g></g><g id="SvgjsG1281"><path id="SvgjsPath1282" d="M187 579L187 563L187 563L187 547" stroke="#323232" stroke-width="2" fill="none" marker-start="url(#SvgjsMarker1283)"></path></g><g id="SvgjsG1285"><path id="SvgjsPath1286" d="M296 579L296 574L263 574L263 569" stroke="#323232" stroke-width="2" fill="none" marker-start="url(#SvgjsMarker1287)"></path></g><g id="SvgjsG1289"><path id="SvgjsPath1290" d="M359 557L359 620.5L468.5 620.5L468.5 684" stroke="#323232" stroke-width="2" fill="none" marker-start="url(#SvgjsMarker1291)" marker-end="url(#SvgjsMarker1293)"></path></g><g id="SvgjsG1295"><path id="SvgjsPath1296" d="M479.5 554L479.5 619L468.5 619L468.5 684" stroke="#323232" stroke-width="2" fill="none" marker-start="url(#SvgjsMarker1297)" marker-end="url(#SvgjsMarker1299)"></path></g><g id="SvgjsG1301"><path id="SvgjsPath1302" d="M603.5 549L603.5 616.5L468.5 616.5L468.5 684" stroke="#323232" stroke-width="2" fill="none" marker-start="url(#SvgjsMarker1303)" marker-end="url(#SvgjsMarker1305)"></path></g></svg>